<?xml version="1.0" standalone="no"?>
<!DOCTYPE svg PUBLIC "-//W3C//DTD SVG 20010904//EN"
 "http://www.w3.org/TR/2001/REC-SVG-20010904/DTD/svg10.dtd">
<svg version="1.0" xmlns="http://www.w3.org/2000/svg"
 width="2000.000000pt" height="3000.000000pt" viewBox="0 0 2000.000000 3000.000000"
 preserveAspectRatio="xMidYMid meet">

<g transform="translate(0.000000,3000.000000) scale(0.100000,-0.100000)"
fill="#000000" stroke="none">
<path d="M10422 29248 c-14 -17 46 -225 67 -233 8 -3 21 1 29 8 12 13 11 25
-7 92 -38 136 -59 168 -89 133z"/>
<path d="M10505 28868 c-4 -15 -18 -158 -19 -203 -1 -25 3 -30 23 -30 29 0 36
21 47 126 8 85 1 119 -27 119 -11 0 -21 -6 -24 -12z"/>
<path d="M9712 28830 c-74 -18 -122 -41 -122 -61 0 -30 22 -32 95 -10 37 12
82 21 100 21 37 0 58 19 49 44 -7 18 -62 20 -122 6z"/>
<path d="M9976 28795 c-21 -21 -13 -35 40 -70 24 -16 58 -47 75 -67 31 -40 63
-49 73 -22 11 28 -75 123 -143 158 -27 14 -31 14 -45 1z"/>
<path d="M9410 28634 c-31 -50 -57 -142 -46 -169 3 -10 14 -15 28 -13 17 2 24
14 33 53 11 46 29 87 57 126 15 22 3 49 -22 49 -13 0 -30 -16 -50 -46z"/>
<path d="M10213 28503 c-18 -7 -16 -26 16 -133 30 -99 52 -129 74 -98 7 9 24
18 37 20 33 4 132 151 128 188 -5 43 -35 36 -65 -15 -16 -26 -43 -67 -62 -92
l-34 -45 -26 82 c-25 79 -42 102 -68 93z"/>
<path d="M9399 28304 c-11 -14 -8 -27 24 -88 52 -100 78 -130 105 -122 31 10
28 27 -17 90 -21 31 -44 70 -52 88 -19 49 -38 59 -60 32z"/>
<path d="M10103 28138 c-54 -39 -83 -67 -83 -79 0 -47 42 -31 163 59 32 25 47
43 47 59 0 38 -37 27 -127 -39z"/>
<path d="M10294 28115 c-6 -15 14 -213 22 -227 9 -13 44 -9 50 6 8 21 -16 209
-28 224 -14 17 -37 15 -44 -3z"/>
<path d="M9651 28027 c-32 -39 28 -67 146 -67 51 0 76 4 87 15 31 31 9 43 -92
47 -53 3 -104 8 -113 12 -9 4 -21 1 -28 -7z"/>
<path d="M10327 27734 c-10 -10 -8 -216 2 -232 5 -8 17 -12 27 -10 17 3 19 14
19 123 0 113 -1 120 -20 123 -12 2 -24 0 -28 -4z"/>
<path d="M10327 27343 c-3 -4 -6 -57 -8 -117 -4 -94 -2 -110 13 -120 33 -21
42 6 43 127 0 107 -1 112 -22 115 -11 2 -23 0 -26 -5z"/>
<path d="M10312 26958 c-15 -19 -32 -220 -20 -235 16 -20 38 -15 47 10 16 42
24 207 11 223 -15 17 -24 18 -38 2z"/>
<path d="M1490 26935 c0 -8 7 -15 15 -15 8 0 15 7 15 15 0 8 -7 15 -15 15 -8
0 -15 -7 -15 -15z"/>
<path d="M10273 26568 c-5 -7 -16 -59 -23 -116 -13 -109 -9 -127 26 -120 37 7
58 239 23 246 -9 2 -20 -3 -26 -10z"/>
<path d="M10215 26180 c-7 -11 -35 -175 -35 -206 0 -26 29 -40 46 -22 14 15
48 214 39 228 -8 13 -42 13 -50 0z"/>
<path d="M9541 25936 c-26 -31 -7 -43 86 -50 157 -13 148 -13 151 11 4 31 -30
43 -138 50 -71 5 -88 3 -99 -11z"/>
<path d="M9315 25864 c-65 -43 -115 -96 -115 -121 0 -42 28 -39 78 9 26 25 63
56 82 68 42 29 50 39 43 57 -8 21 -45 15 -88 -13z"/>
<path d="M9909 25844 c-12 -15 -10 -20 20 -43 19 -14 58 -48 87 -74 53 -49 86
-58 92 -26 4 23 -33 66 -101 115 -65 48 -78 52 -98 28z"/>
<path d="M10145 25788 c-40 -179 -44 -203 -30 -217 27 -27 43 -4 65 92 26 111
24 141 -7 145 -16 2 -24 -3 -28 -20z"/>
<path d="M9134 25583 c-20 -20 -14 -110 12 -185 13 -39 20 -48 39 -48 31 0 35
16 18 65 -8 22 -17 70 -20 107 -6 72 -20 89 -49 61z"/>
<path d="M10164 25555 c-7 -17 61 -192 82 -215 12 -12 16 -12 30 2 19 19 12
49 -38 161 -22 48 -36 67 -50 67 -10 0 -21 -7 -24 -15z"/>
<path d="M10063 25432 c-6 -4 -21 -29 -32 -55 -11 -26 -34 -68 -51 -92 -31
-46 -31 -75 1 -75 23 0 60 49 100 133 25 55 29 70 19 82 -14 17 -20 18 -37 7z"/>
<path d="M9271 25236 c-18 -21 -1 -47 58 -90 89 -66 151 -81 151 -36 0 14 -15
27 -48 44 -27 13 -67 41 -91 60 -48 40 -54 42 -70 22z"/>
<path d="M10280 25178 c0 -56 24 -204 34 -216 20 -21 46 -3 46 32 0 30 -15
138 -25 184 -7 31 -55 32 -55 0z"/>
<path d="M9786 25134 c-22 -8 -65 -17 -95 -20 -57 -6 -84 -25 -74 -50 8 -21
98 -17 173 9 57 19 65 25 65 47 0 30 -17 34 -69 14z"/>
<path d="M10317 24813 c-3 -5 -8 -58 -11 -119 -6 -89 -5 -113 7 -122 10 -9 17
-9 30 1 22 16 36 209 17 232 -13 16 -36 20 -43 8z"/>
<path d="M10275 24408 c-2 -13 -14 -63 -25 -112 -15 -67 -17 -92 -9 -102 16
-19 37 -17 47 4 16 29 46 197 39 215 -10 25 -46 21 -52 -5z"/>
<path d="M10194 24052 c-17 -11 -93 -202 -87 -218 7 -18 37 -18 51 -1 6 7 27
55 47 106 28 73 33 96 24 107 -13 16 -19 17 -35 6z"/>
<path d="M9968 23611 c-61 -93 -68 -115 -42 -125 23 -9 34 3 93 92 56 86 65
122 29 122 -18 0 -37 -21 -80 -89z"/>
<path d="M9716 23314 c-65 -62 -78 -79 -69 -93 18 -28 39 -18 118 53 56 51 75
74 73 90 -6 42 -40 28 -122 -50z"/>
<path d="M9459 23116 c-36 -21 -54 -39 -54 -52 0 -29 38 -29 87 2 49 31 58 42
51 60 -9 24 -31 22 -84 -10z"/>
<path d="M10246 21839 c-22 -5 -66 -21 -98 -36 -47 -21 -58 -30 -58 -50 0 -34
23 -38 82 -13 28 12 78 27 111 34 66 14 89 34 68 60 -15 18 -45 19 -105 5z"/>
<path d="M10515 21804 c-23 -23 -16 -34 47 -76 31 -20 71 -55 90 -77 38 -45
62 -51 78 -22 14 28 -38 93 -118 148 -71 48 -74 49 -97 27z"/>
<path d="M9920 21601 c-23 -46 -45 -169 -36 -204 7 -28 33 -42 51 -27 7 5 15
41 18 80 3 38 15 90 26 116 16 36 18 50 10 60 -21 26 -48 16 -69 -25z"/>
<path d="M10765 21470 c-3 -6 -3 -40 0 -78 4 -38 2 -88 -4 -116 -9 -36 -9 -52
0 -62 19 -23 49 -16 61 14 15 37 15 201 -1 230 -12 23 -45 30 -56 12z"/>
<path d="M12928 21393 c-32 -5 -50 -25 -42 -46 8 -22 15 -23 154 -17 120 5
125 6 128 27 3 17 -3 26 -23 33 -25 10 -161 11 -217 3z"/>
<path d="M9120 21355 c-14 -16 3 -75 51 -183 30 -67 52 -84 76 -60 13 14 10
27 -29 124 -24 60 -47 115 -51 122 -11 16 -32 15 -47 -3z"/>
<path d="M12591 21325 c-57 -18 -110 -40 -118 -47 -15 -15 -9 -44 10 -51 11
-4 169 41 225 64 31 12 39 39 17 55 -23 17 -10 19 -134 -21z"/>
<path d="M13324 21346 c-12 -32 1 -49 51 -63 28 -8 80 -26 117 -40 55 -21 70
-24 83 -13 39 32 7 59 -123 100 -105 34 -120 36 -128 16z"/>
<path d="M9937 21214 c-16 -16 -5 -54 43 -152 44 -89 54 -102 76 -102 13 0 27
7 30 15 5 12 -37 111 -95 225 -9 16 -43 25 -54 14z"/>
<path d="M12192 21156 c-57 -30 -108 -58 -114 -64 -15 -15 1 -52 22 -52 34 0
230 110 230 129 0 16 -18 41 -29 41 -4 -1 -53 -25 -109 -54z"/>
<path d="M16355 21139 c-49 -28 -96 -57 -104 -64 -17 -17 -5 -55 18 -55 23 0
218 111 225 128 9 21 -5 42 -28 42 -11 0 -61 -23 -111 -51z"/>
<path d="M13717 21173 c-19 -18 -1 -45 61 -92 37 -28 82 -63 99 -77 34 -27 59
-27 69 1 8 20 -21 51 -112 121 -65 50 -100 64 -117 47z"/>
<path d="M10581 20990 c-93 -88 -105 -111 -66 -126 28 -11 205 144 205 180 0
15 -21 36 -34 36 -6 -1 -53 -41 -105 -90z"/>
<path d="M9322 20978 c-21 -21 -14 -38 39 -94 72 -75 136 -116 160 -103 27 14
24 35 -8 62 -15 12 -57 50 -94 85 -69 65 -77 70 -97 50z"/>
<path d="M11798 20928 c-99 -61 -115 -82 -83 -108 13 -10 33 -2 123 52 89 53
107 68 107 88 0 44 -41 35 -147 -32z"/>
<path d="M15984 20892 c-70 -53 -89 -73 -89 -92 0 -42 39 -31 136 40 85 63
107 89 94 110 -15 24 -57 6 -141 -58z"/>
<path d="M14040 20880 c-9 -16 1 -31 66 -105 43 -47 86 -91 96 -96 23 -12 48
4 48 30 -1 21 -165 191 -185 191 -8 0 -19 -9 -25 -20z"/>
<path d="M10160 20835 c-11 -13 -11 -20 0 -40 15 -29 15 -29 -25 -42 -33 -11
-45 -43 -22 -61 10 -8 27 -8 67 3 l53 14 50 -39 c56 -45 72 -49 87 -20 9 17 6
26 -21 52 l-31 32 26 19 c29 21 34 54 10 64 -8 3 -34 -2 -57 -11 l-41 -16 -31
30 c-35 34 -47 37 -65 15z"/>
<path d="M11433 20712 c-103 -58 -117 -70 -107 -97 12 -30 54 -16 192 63 46
27 62 42 62 58 0 19 -19 36 -38 33 -4 0 -53 -26 -109 -57z"/>
<path d="M9674 20736 c-17 -44 29 -63 172 -73 88 -6 92 -5 99 16 11 36 -9 48
-98 54 -45 4 -101 9 -124 13 -34 5 -44 3 -49 -10z"/>
<path d="M15642 20628 c-52 -39 -96 -77 -99 -85 -3 -8 2 -22 11 -31 19 -20 20
-19 144 72 70 51 82 65 80 86 -5 44 -37 34 -136 -42z"/>
<path d="M14345 20570 c-9 -28 4 -41 108 -111 93 -62 112 -67 131 -35 12 20
19 14 -117 111 -84 59 -112 67 -122 35z"/>
<path d="M10495 20570 c-22 -36 41 -73 178 -105 63 -15 82 -12 91 12 10 26
-11 39 -87 58 -39 9 -84 24 -99 31 -32 16 -74 18 -83 4z"/>
<path d="M11130 20571 c-8 -5 -55 -19 -105 -31 -98 -24 -119 -37 -109 -64 6
-16 15 -18 63 -13 31 3 90 16 131 29 77 25 95 43 70 73 -14 17 -28 18 -50 6z"/>
<path d="M15359 20450 c-9 -5 -56 -23 -105 -39 -97 -33 -119 -51 -92 -77 14
-15 23 -15 65 -5 26 7 81 26 121 43 67 28 73 33 70 57 -3 28 -31 38 -59 21z"/>
<path d="M14725 20369 c-14 -43 49 -63 195 -64 74 0 75 0 78 27 4 31 -2 33
-113 42 -38 3 -89 9 -111 12 -38 6 -43 4 -49 -17z"/>
<path d="M17735 20149 c-10 -15 -33 -251 -27 -267 2 -7 16 -12 31 -10 29 3 33
15 50 173 10 95 5 115 -30 115 -10 0 -21 -5 -24 -11z"/>
<path d="M17697 19697 c-8 -7 -27 -68 -41 -136 -24 -108 -26 -126 -13 -138 19
-19 52 -3 60 29 23 100 45 223 40 234 -7 19 -29 24 -46 11z"/>
<path d="M10690 19613 c-74 -6 -90 -12 -90 -34 0 -29 19 -32 138 -23 105 9
107 9 107 34 0 24 -3 25 -55 26 -30 0 -75 -1 -100 -3z"/>
<path d="M11005 19603 c-17 -16 -10 -40 13 -47 10 -2 64 -6 122 -8 l105 -3 0
25 c0 21 -6 25 -40 31 -95 15 -186 17 -200 2z"/>
<path d="M10311 19542 c-86 -28 -116 -51 -94 -73 10 -10 33 -6 105 15 128 38
140 43 136 64 -5 27 -53 25 -147 -6z"/>
<path d="M11393 19554 c-9 -25 8 -33 98 -49 118 -21 149 -20 149 4 0 27 -7 30
-102 46 -106 19 -137 19 -145 -1z"/>
<path d="M11784 19485 c-10 -25 4 -33 104 -55 53 -12 102 -23 109 -25 7 -2 20
3 28 12 26 25 0 42 -96 64 -102 22 -138 24 -145 4z"/>
<path d="M9999 19397 c-82 -57 -129 -98 -129 -112 0 -7 7 -18 15 -25 13 -11
20 -10 43 9 15 11 57 43 94 69 49 34 67 52 65 67 -3 31 -37 28 -88 -8z"/>
<path d="M12181 19407 c-32 -32 -10 -46 123 -77 98 -23 119 -21 114 12 -3 20
-15 26 -88 45 -124 31 -136 33 -149 20z"/>
<path d="M12564 19305 c-12 -31 7 -43 112 -69 97 -24 109 -25 123 -11 24 24
-1 40 -112 69 -116 30 -116 30 -123 11z"/>
<path d="M17527 19227 c-15 -25 -50 -73 -78 -107 -42 -50 -50 -65 -42 -79 5
-9 17 -17 25 -19 20 -4 76 54 135 141 38 55 45 71 37 85 -22 34 -50 26 -77
-21z"/>
<path d="M12950 19204 c-21 -24 3 -38 102 -63 117 -28 138 -28 138 3 0 23 -8
26 -108 50 -128 31 -116 30 -132 10z"/>
<path d="M9360 19175 c-10 -12 -10 -18 0 -30 18 -22 238 -22 246 0 4 8 1 22
-6 30 -18 22 -222 22 -240 0z"/>
<path d="M9698 19122 c-66 -74 -99 -127 -92 -145 12 -33 42 -17 90 48 34 44
56 65 71 65 12 0 60 -13 106 -30 96 -34 113 -36 120 -17 11 28 -22 49 -135 86
-37 13 -70 27 -73 32 -13 21 -46 6 -87 -39z"/>
<path d="M9102 19131 c-94 -33 -132 -55 -132 -77 0 -27 29 -26 112 6 141 54
159 68 120 89 -14 7 -39 3 -100 -18z"/>
<path d="M13334 19115 c-13 -32 6 -42 111 -64 116 -25 138 -23 133 11 -3 21
-15 25 -108 45 -126 27 -129 27 -136 8z"/>
<path d="M13724 19035 c-12 -31 5 -42 98 -58 126 -23 148 -22 148 3 0 26 -23
35 -131 55 -105 19 -108 19 -115 0z"/>
<path d="M5890 19015 c-9 -11 -10 -19 -2 -28 10 -12 69 -14 225 -7 5 0 7 10 5
23 -3 21 -8 22 -109 25 -85 2 -108 0 -119 -13z"/>
<path d="M5631 18972 c-86 -28 -116 -51 -94 -73 10 -10 33 -6 105 16 100 30
124 44 115 69 -9 22 -28 20 -126 -12z"/>
<path d="M6250 18977 c0 -20 12 -27 94 -55 114 -39 126 -39 126 -8 0 21 -10
28 -86 55 -105 38 -134 40 -134 8z"/>
<path d="M8755 18919 c-75 -71 -100 -110 -82 -128 19 -19 30 -13 110 68 53 53
78 85 75 97 -7 36 -36 25 -103 -37z"/>
<path d="M10112 18968 c-18 -18 -16 -22 32 -78 25 -29 48 -66 51 -81 8 -36 31
-60 50 -53 37 14 2 114 -62 182 -43 45 -52 49 -71 30z"/>
<path d="M14113 18964 c-10 -28 19 -41 127 -57 85 -13 107 -14 118 -3 29 28 3
43 -106 60 -131 20 -131 20 -139 0z"/>
<path d="M17195 18914 c-22 -13 -70 -35 -107 -50 -57 -22 -68 -29 -68 -49 0
-14 7 -26 19 -30 22 -7 101 22 186 68 49 26 60 37 60 57 0 34 -38 36 -90 4z"/>
<path d="M14510 18897 c0 -29 3 -30 139 -47 95 -13 114 -9 109 22 -4 26 -30
33 -160 44 l-88 7 0 -26z"/>
<path d="M14911 18866 c-22 -26 -6 -44 46 -50 150 -18 179 -18 192 -2 22 27
-3 43 -77 50 -37 4 -85 9 -108 12 -29 4 -44 1 -53 -10z"/>
<path d="M5288 18825 c-67 -34 -88 -50 -88 -65 0 -37 28 -33 122 18 66 35 93
56 93 69 0 31 -36 25 -127 -22z"/>
<path d="M6580 18831 c0 -22 144 -141 171 -141 19 0 31 21 20 38 -4 6 -38 36
-76 67 -72 57 -115 71 -115 36z"/>
<path d="M9522 18823 c-12 -31 -8 -166 7 -201 10 -25 19 -32 35 -30 17 2 20 9
17 33 -2 17 -4 66 -5 110 -1 44 -5 86 -10 93 -11 18 -35 15 -44 -5z"/>
<path d="M15308 18834 c-5 -4 -8 -15 -8 -25 0 -23 20 -28 145 -31 90 -3 100
-1 103 16 2 10 0 22 -5 26 -11 11 -226 24 -235 14z"/>
<path d="M15701 18802 c-17 -32 5 -40 122 -48 l107 -7 0 32 0 31 -57 0 c-32 0
-81 3 -109 6 -45 6 -53 4 -63 -14z"/>
<path d="M16218 18793 c-49 -2 -88 -7 -88 -12 0 -4 13 -20 28 -35 l29 -27 104
8 c88 7 104 11 107 26 6 29 -17 47 -57 45 -20 -1 -75 -4 -123 -5z"/>
<path d="M16630 18791 c-50 -5 -55 -8 -55 -31 l0 -25 123 -3 c134 -3 165 5
160 41 -3 21 -9 22 -88 23 -47 1 -110 -2 -140 -5z"/>
<path d="M4978 18644 c-87 -55 -108 -84 -73 -98 18 -7 195 100 195 118 0 12
-20 36 -29 36 -4 0 -45 -26 -93 -56z"/>
<path d="M8488 18609 c-76 -58 -96 -90 -64 -102 21 -8 188 120 184 141 -6 33
-43 21 -120 -39z"/>
<path d="M10162 18578 c-17 -24 -51 -62 -76 -86 -50 -47 -53 -54 -31 -72 22
-18 86 29 136 99 42 58 48 85 23 95 -22 9 -20 10 -52 -36z"/>
<path d="M6854 18595 c-9 -23 122 -165 152 -165 40 0 28 30 -42 108 -65 71
-98 88 -110 57z"/>
<path d="M4746 18503 c-10 -10 -7 -63 3 -63 12 0 41 29 41 40 0 12 -36 31 -44
23z"/>
<path d="M9674 18485 c-11 -28 5 -46 68 -75 71 -33 152 -48 162 -31 15 24 -4
49 -42 55 -20 3 -66 19 -100 36 -73 34 -80 36 -88 15z"/>
<path d="M8203 18389 c-53 -39 -83 -69 -83 -81 0 -38 30 -30 115 33 64 48 85
69 83 84 -5 35 -31 27 -115 -36z"/>
<path d="M7123 18353 c-32 -12 -10 -44 65 -97 84 -61 122 -71 122 -33 0 15
-11 29 -32 41 -18 10 -56 36 -85 57 -29 22 -53 39 -55 38 -2 0 -9 -3 -15 -6z"/>
<path d="M7942 18229 c-24 -10 -69 -26 -99 -35 -46 -13 -54 -19 -51 -37 2 -18
9 -22 39 -20 44 2 140 38 171 62 19 16 20 21 9 35 -16 19 -15 19 -69 -5z"/>
<path d="M7434 18176 c-13 -33 4 -44 89 -56 111 -15 132 -12 132 20 0 23 -4
25 -65 31 -36 3 -84 9 -107 13 -35 6 -44 5 -49 -8z"/>
<path d="M11432 16815 c-89 -21 -132 -45 -132 -72 0 -35 25 -39 96 -13 35 12
87 25 115 29 54 6 77 26 66 55 -8 20 -67 20 -145 1z"/>
<path d="M5528 16799 c-19 -11 -24 -44 -9 -54 5 -3 43 -10 83 -15 40 -5 94
-17 121 -26 38 -13 50 -14 62 -4 22 18 18 37 -9 56 -50 32 -217 61 -248 43z"/>
<path d="M11741 16796 c-22 -26 -6 -43 81 -85 46 -23 97 -50 114 -61 29 -19
33 -19 48 -5 9 9 16 21 16 26 0 19 -54 60 -124 94 -92 44 -119 51 -135 31z"/>
<path d="M5245 16732 c-38 -20 -87 -53 -108 -74 -33 -31 -37 -39 -27 -57 16
-30 34 -26 90 18 28 22 75 51 105 66 56 26 68 48 43 73 -17 17 -26 15 -103
-26z"/>
<path d="M11115 16608 c-35 -41 -95 -165 -95 -196 0 -26 25 -40 47 -26 9 5 23
31 33 57 10 26 34 70 55 98 40 56 43 92 9 97 -14 2 -31 -8 -49 -30z"/>
<path d="M5910 16610 c-9 -16 -4 -29 25 -73 19 -29 44 -77 54 -107 21 -60 38
-77 66 -66 25 9 16 64 -25 147 -51 106 -96 143 -120 99z"/>
<path d="M12073 16514 c-3 -9 4 -46 16 -83 12 -37 25 -89 29 -116 7 -50 28
-73 56 -62 11 4 16 18 16 44 0 46 -35 179 -56 211 -17 26 -52 29 -61 6z"/>
<path d="M5017 16449 c-24 -14 -37 -73 -37 -175 0 -102 11 -125 49 -104 19 9
21 20 21 93 0 45 5 99 9 121 14 57 -5 85 -42 65z"/>
<path d="M8036 16307 c-10 -7 -17 -22 -14 -33 3 -18 13 -19 143 -19 l140 0 0
30 0 30 -125 3 c-93 2 -130 -1 -144 -11z"/>
<path d="M8469 16264 c-20 -25 -1 -43 71 -68 36 -13 84 -33 107 -45 49 -25 79
-27 87 -6 14 36 -22 62 -151 111 -74 28 -96 30 -114 8z"/>
<path d="M7711 16235 c-108 -39 -131 -56 -115 -83 16 -23 42 -20 159 21 101
36 123 51 112 81 -9 24 -50 19 -156 -19z"/>
<path d="M10995 16216 c-38 -28 6 -268 51 -274 36 -5 45 18 28 74 -8 27 -17
82 -21 122 -7 80 -24 103 -58 78z"/>
<path d="M6033 16198 c-5 -7 -15 -38 -22 -68 -6 -30 -23 -79 -36 -109 -29 -62
-25 -91 11 -91 21 0 30 10 54 63 39 87 58 180 41 201 -16 19 -35 21 -48 4z"/>
<path d="M3814 16135 c-9 -23 9 -77 59 -170 35 -67 46 -80 67 -80 18 0 26 6
28 21 2 17 -48 133 -97 224 -12 22 -50 25 -57 5z"/>
<path d="M7302 16040 c-94 -56 -103 -64 -100 -88 5 -43 34 -37 148 32 87 52
105 67 105 87 0 43 -41 35 -153 -31z"/>
<path d="M12110 16071 c-5 -11 -10 -26 -10 -33 0 -7 -19 -52 -42 -101 -38 -80
-40 -89 -26 -103 28 -28 53 -8 91 74 45 98 59 145 51 165 -9 23 -51 21 -64 -2z"/>
<path d="M8852 16048 c-7 -7 -12 -17 -12 -23 0 -6 43 -53 95 -105 81 -80 98
-93 113 -84 36 23 25 45 -64 135 -88 88 -109 100 -132 77z"/>
<path d="M5036 16004 c-19 -19 -20 -10 3 -75 22 -65 77 -175 91 -184 18 -11
50 6 50 26 0 11 -13 45 -29 77 -15 31 -36 79 -46 105 -21 56 -46 75 -69 51z"/>
<path d="M6940 15807 c-106 -71 -123 -88 -114 -110 13 -35 38 -28 135 38 114
77 127 90 112 113 -18 29 -36 24 -133 -41z"/>
<path d="M5760 15745 c-47 -41 -88 -75 -92 -75 -4 0 -10 -9 -13 -20 -7 -23 10
-50 31 -50 20 0 192 147 199 171 7 21 -10 49 -29 49 -6 -1 -49 -34 -96 -75z"/>
<path d="M11137 15803 c-21 -21 -2 -55 68 -122 88 -83 117 -100 140 -81 8 7
15 18 15 24 0 16 -185 186 -203 186 -7 0 -17 -3 -20 -7z"/>
<path d="M4040 15755 c-6 -8 -9 -23 -5 -34 7 -24 171 -181 189 -181 18 0 39
26 34 42 -4 17 -182 188 -195 188 -6 0 -16 -7 -23 -15z"/>
<path d="M9182 15748 c-29 -29 -6 -55 113 -129 43 -27 89 -49 101 -49 31 0 43
39 18 57 -73 51 -204 133 -211 133 -5 0 -14 -5 -21 -12z"/>
<path d="M11835 15654 c-43 -36 -88 -72 -102 -81 -27 -18 -28 -50 -1 -66 13
-9 28 -2 75 33 87 66 143 120 143 139 0 17 -18 41 -31 41 -4 0 -42 -30 -84
-66z"/>
<path d="M5252 15618 c-20 -20 -13 -41 29 -87 22 -24 39 -44 37 -45 -2 -1 -16
-7 -31 -14 -35 -15 -44 -39 -23 -60 15 -15 20 -15 66 1 48 17 52 17 80 1 24
-15 31 -16 45 -4 10 8 15 23 12 36 -3 17 4 25 30 38 37 17 44 49 15 65 -12 7
-31 3 -65 -11 l-47 -21 -59 57 c-63 59 -70 63 -89 44z"/>
<path d="M6583 15572 c-39 -26 -86 -55 -102 -64 -22 -12 -31 -25 -31 -41 0
-52 41 -40 195 58 61 40 74 57 55 80 -19 23 -39 17 -117 -33z"/>
<path d="M9572 15531 c-8 -4 -12 -19 -10 -31 2 -19 22 -30 117 -67 63 -24 121
-43 129 -41 8 2 20 11 26 20 16 27 -5 41 -128 87 -121 45 -116 44 -134 32z"/>
<path d="M11487 15534 c-15 -15 -6 -43 19 -61 l26 -19 -88 -33 c-138 -50 -136
-49 -132 -73 6 -42 28 -42 143 1 61 23 117 50 127 61 16 20 16 20 64 0 62 -27
99 -24 99 9 0 21 -13 30 -100 69 -105 47 -145 58 -158 46z"/>
<path d="M4387 15484 c-18 -18 -5 -45 31 -62 36 -19 140 -54 191 -66 29 -6 51
9 51 35 0 21 -5 24 -125 64 -93 31 -137 40 -148 29z"/>
<path d="M5010 15410 c-30 -5 -83 -8 -117 -9 -50 -1 -64 -5 -72 -20 -7 -13 -6
-23 3 -36 12 -16 24 -18 119 -12 140 8 191 32 152 71 -9 9 -19 15 -23 15 -4
-1 -32 -5 -62 -9z"/>
<path d="M6190 15374 c-36 -13 -84 -28 -106 -34 -45 -11 -62 -34 -43 -56 17
-21 49 -17 154 16 98 32 130 52 121 77 -3 8 -6 17 -6 19 0 10 -61 -1 -120 -22z"/>
<path d="M9992 15388 c-16 -16 -15 -33 1 -47 8 -6 67 -22 131 -36 124 -27 146
-24 146 16 0 25 -1 25 -136 54 -139 29 -127 28 -142 13z"/>
<path d="M11912 15381 c-8 -4 -12 -19 -10 -32 4 -27 47 -42 176 -61 71 -10 84
-10 97 3 20 19 10 48 -19 53 -11 3 -59 12 -106 20 -47 9 -94 19 -105 21 -11 3
-26 1 -33 -4z"/>
<path d="M5603 15344 c-3 -9 -2 -24 4 -33 15 -24 119 -52 198 -54 69 -2 70 -2
73 25 3 22 -1 28 -20 32 -13 2 -68 13 -123 25 -120 25 -124 25 -132 5z"/>
<path d="M10970 15316 c-93 -11 -95 -12 -98 -39 -5 -38 11 -41 140 -28 126 14
151 23 146 54 -3 19 -10 22 -48 23 -25 1 -88 -3 -140 -10z"/>
<path d="M10430 15305 c-35 -43 55 -70 210 -63 62 3 65 4 68 30 4 33 -1 35
-154 43 -95 5 -113 4 -124 -10z"/>
<path d="M12320 15238 c0 -13 4 -28 8 -33 10 -14 173 -85 195 -85 23 0 33 28
16 45 -15 14 -193 95 -209 95 -6 0 -10 -10 -10 -22z"/>
<path d="M12684 15085 c-11 -29 4 -41 98 -78 100 -40 133 -45 141 -23 10 25
-16 42 -117 79 -112 42 -115 42 -122 22z"/>
<path d="M13067 14954 c-10 -10 -9 -42 1 -48 23 -14 216 -64 229 -59 8 3 13
15 11 27 -2 17 -20 26 -88 48 -102 33 -143 42 -153 32z"/>
<path d="M13457 14843 c-18 -17 -5 -42 26 -52 53 -17 167 -41 193 -41 28 0 43
25 25 43 -6 6 -55 21 -109 33 -106 25 -125 27 -135 17z"/>
<path d="M13863 14764 c-19 -8 -16 -42 5 -52 25 -13 206 -36 226 -29 21 8 20
34 -2 46 -10 5 -53 14 -96 20 -42 6 -87 13 -99 15 -12 3 -28 2 -34 0z"/>
<path d="M14256 14693 c-12 -31 17 -42 129 -52 98 -9 111 -8 123 6 21 28 -6
43 -99 53 -120 14 -146 13 -153 -7z"/>
<path d="M15177 14690 c-100 -7 -122 -16 -109 -48 4 -12 25 -14 125 -9 124 5
150 14 131 45 -13 20 -22 21 -147 12z"/>
<path d="M14667 14674 c-15 -15 -6 -44 16 -49 12 -3 69 -5 127 -3 105 3 105 3
105 28 l0 25 -121 3 c-66 1 -123 -1 -127 -4z"/>
<path d="M9513 13519 c-149 -17 -205 -42 -190 -84 8 -19 3 -19 167 5 114 16
134 22 138 45 4 16 -23 47 -37 44 -3 -1 -38 -5 -78 -10z"/>
<path d="M9816 13494 c-32 -31 -16 -48 64 -69 36 -9 94 -28 129 -42 47 -19 69
-23 80 -16 49 31 5 69 -124 107 -122 37 -132 38 -149 20z"/>
<path d="M9082 13348 c-23 -18 -62 -60 -87 -92 -65 -84 -72 -126 -20 -126 17
0 31 13 54 48 17 27 56 72 86 101 57 54 64 68 43 89 -18 18 -32 15 -76 -20z"/>
<path d="M10252 13288 c-20 -20 -14 -38 33 -91 24 -28 58 -77 75 -109 25 -47
36 -58 56 -58 39 0 41 27 4 98 -34 66 -123 172 -144 172 -7 0 -17 -5 -24 -12z"/>
<path d="M8872 12948 c-15 -15 -17 -251 -2 -279 12 -21 45 -25 56 -7 9 14 7
275 -1 289 -9 13 -39 11 -53 -3z"/>
<path d="M10455 12851 c-10 -10 -10 -262 0 -288 6 -18 52 -16 59 3 8 21 6 232
-3 264 -7 26 -39 38 -56 21z"/>
<path d="M16794 12832 c-6 -4 -35 -43 -65 -87 -30 -44 -65 -94 -78 -111 -19
-26 -21 -35 -12 -53 16 -30 34 -26 70 14 51 58 131 183 131 204 0 22 -30 44
-46 33z"/>
<path d="M13495 12821 c-32 -7 -44 -33 -25 -56 9 -11 39 -13 145 -11 73 2 138
7 144 11 18 10 13 43 -8 55 -21 11 -206 12 -256 1z"/>
<path d="M13963 12794 c-18 -8 -16 -53 1 -60 8 -3 71 -18 141 -33 109 -24 129
-26 141 -14 33 33 9 52 -97 78 -112 27 -170 36 -186 29z"/>
<path d="M13143 12751 c-111 -39 -148 -61 -148 -91 0 -37 24 -36 123 4 49 20
103 39 121 42 38 8 55 27 46 54 -9 28 -43 26 -142 -9z"/>
<path d="M14430 12655 c-25 -30 -1 -49 119 -97 65 -27 125 -48 133 -48 21 0
40 24 33 42 -7 17 -22 25 -154 79 -105 44 -114 45 -131 24z"/>
<path d="M12687 12498 c-93 -63 -107 -76 -105 -98 5 -46 40 -36 158 45 111 77
115 81 104 109 -11 30 -50 16 -157 -56z"/>
<path d="M8950 12469 c-14 -25 12 -72 95 -172 47 -57 61 -68 83 -65 48 5 41
41 -22 109 -31 33 -67 80 -82 104 -28 49 -56 58 -74 24z"/>
<path d="M14874 12455 c-12 -31 9 -48 129 -103 124 -57 157 -60 157 -17 0 20
-16 31 -107 75 -126 60 -169 71 -179 45z"/>
<path d="M16455 12434 c-16 -14 -64 -48 -105 -76 -81 -53 -93 -67 -84 -92 10
-27 52 -18 117 26 137 92 166 125 135 156 -17 17 -29 15 -63 -14z"/>
<path d="M10416 12362 c-3 -5 -24 -65 -47 -135 -35 -104 -40 -129 -29 -142 18
-21 37 -19 54 8 25 37 87 238 81 258 -6 19 -49 27 -59 11z"/>
<path d="M12270 12237 c-118 -64 -137 -86 -97 -111 14 -9 35 -2 110 36 142 73
159 85 155 111 -5 39 -46 31 -168 -36z"/>
<path d="M15332 12268 c-16 -16 -15 -43 1 -55 30 -25 246 -80 271 -70 9 4 16
18 16 31 0 22 -7 27 -57 41 -32 9 -93 27 -135 40 -91 29 -81 28 -96 13z"/>
<path d="M15990 12205 c-30 -7 -77 -14 -103 -14 -61 -1 -87 -15 -87 -45 0 -34
20 -38 122 -25 154 19 211 45 179 83 -15 18 -34 18 -111 1z"/>
<path d="M9300 12135 c-7 -8 -10 -22 -6 -30 8 -22 206 -116 247 -118 30 -2 34
1 37 25 3 22 -2 30 -25 40 -15 6 -70 31 -122 55 -104 48 -113 50 -131 28z"/>
<path d="M11845 12065 c-55 -19 -107 -34 -116 -34 -47 -2 -48 -71 -2 -71 39 0
248 67 262 84 16 19 -3 56 -27 55 -9 -1 -62 -16 -117 -34z"/>
<path d="M9762 11968 c-19 -19 -14 -48 11 -57 12 -5 75 -19 139 -31 95 -18
121 -20 133 -10 18 15 19 34 2 48 -9 8 -245 62 -270 62 -2 0 -8 -5 -15 -12z"/>
<path d="M11344 11951 c-123 -21 -134 -25 -134 -49 0 -42 21 -45 155 -22 157
27 157 26 153 59 -3 22 -8 26 -38 28 -19 0 -80 -7 -136 -16z"/>
<path d="M10184 11853 c-27 -37 -64 -85 -82 -105 -37 -40 -40 -80 -9 -86 22
-5 62 31 124 111 l45 58 135 -3 c119 -3 137 -1 147 14 21 33 -10 46 -139 56
-66 6 -132 13 -146 17 -23 6 -31 0 -75 -62z"/>
<path d="M10857 11900 c-119 -8 -153 -23 -131 -58 10 -15 26 -17 115 -15 149
3 187 10 194 34 9 27 -12 49 -44 47 -14 0 -75 -4 -134 -8z"/>
<path d="M9855 11554 c-22 -13 -71 -36 -110 -51 -86 -32 -99 -44 -90 -73 6
-19 12 -22 45 -17 51 7 226 90 238 114 13 23 -2 53 -26 52 -9 0 -35 -12 -57
-25z"/>
<path d="M8205 11509 c-11 -33 11 -46 132 -73 131 -30 161 -32 170 -10 12 33
-13 47 -133 76 -144 34 -161 34 -169 7z"/>
<path d="M7793 11473 c-102 -46 -126 -70 -97 -94 18 -15 44 -8 159 46 84 39
96 47 93 67 -5 36 -42 31 -155 -19z"/>
<path d="M8685 11410 c-14 -43 -1 -47 250 -74 36 -4 65 18 58 45 -6 22 -13 24
-151 38 -141 15 -150 14 -157 -9z"/>
<path d="M9298 11406 c-59 -6 -112 -16 -119 -22 -6 -7 -8 -21 -4 -34 7 -23 9
-23 119 -16 162 10 181 15 181 51 0 27 -3 30 -35 31 -19 1 -83 -4 -142 -10z"/>
<path d="M7426 11288 c-100 -60 -126 -82 -126 -107 0 -38 32 -31 128 29 54 33
103 64 110 70 18 16 15 38 -7 49 -15 8 -36 0 -105 -41z"/>
<path d="M7087 11001 c-31 -38 -66 -85 -77 -104 -19 -32 -19 -36 -5 -51 9 -9
20 -16 25 -16 7 0 141 163 163 198 11 16 -9 42 -32 42 -9 0 -43 -31 -74 -69z"/>
<path d="M6887 10673 c-26 -51 -69 -192 -65 -215 2 -17 10 -23 26 -23 21 0 28
12 59 100 43 122 47 159 16 163 -16 2 -26 -5 -36 -25z"/>
<path d="M6790 10270 c-12 -7 -16 -37 -18 -139 -4 -126 -3 -129 18 -136 12 -4
26 -3 32 3 5 5 12 67 15 137 4 100 2 129 -9 136 -16 11 -20 11 -38 -1z"/>
<path d="M6786 9822 c-8 -14 24 -244 36 -259 14 -17 47 -16 54 1 3 8 -3 70
-13 138 -18 120 -19 123 -45 126 -14 2 -29 -1 -32 -6z"/>
<path d="M6873 9393 c-18 -7 -16 -42 10 -163 22 -100 24 -105 50 -108 16 -2
29 2 33 11 7 19 -46 250 -60 259 -12 9 -16 9 -33 1z"/>
<path d="M6954 8945 c-6 -15 -4 -39 17 -162 10 -56 14 -63 42 -72 16 -6 32
-10 34 -8 5 6 -15 144 -30 202 -9 40 -17 51 -35 53 -13 2 -25 -3 -28 -13z"/>
<path d="M7050 8445 c-14 -16 -8 -97 15 -219 12 -61 25 -85 47 -86 15 0 38 33
34 49 -3 9 -12 68 -21 131 -9 63 -21 121 -27 128 -14 16 -33 15 -48 -3z"/>
<path d="M7123 7954 c-7 -19 32 -212 53 -262 10 -26 19 -33 36 -30 32 4 34 39
8 156 -29 134 -37 152 -67 152 -13 0 -26 -7 -30 -16z"/>
<path d="M7241 7476 c-10 -11 -10 -24 -3 -48 6 -18 25 -79 41 -134 34 -110 53
-132 83 -94 16 19 15 24 -2 78 -10 31 -25 84 -35 117 -9 33 -20 67 -24 75 -11
21 -45 24 -60 6z"/>
<path d="M7385 7001 c-7 -22 77 -260 97 -272 18 -12 39 -7 51 11 9 15 -32 146
-78 248 -17 37 -59 46 -70 13z"/>
<path d="M7566 6542 c-9 -28 100 -259 126 -268 23 -7 48 12 47 35 0 9 -26 68
-57 131 -50 100 -61 115 -84 118 -19 2 -28 -2 -32 -16z"/>
<path d="M8672 6474 c-16 -29 3 -54 41 -54 37 -1 98 -13 180 -37 54 -15 59
-15 75 0 13 13 14 22 6 35 -15 24 -132 61 -218 69 -66 5 -75 4 -84 -13z"/>
<path d="M8401 6434 c-57 -26 -150 -96 -170 -127 -16 -25 -4 -57 21 -57 11 0
43 20 71 44 28 25 77 57 109 73 49 23 58 31 58 54 0 15 -7 29 -16 33 -19 7
-10 10 -73 -20z"/>
<path d="M9122 6298 c-20 -20 -14 -37 29 -88 23 -27 56 -77 73 -112 35 -68 66
-86 85 -50 14 27 -42 141 -103 210 -49 54 -63 61 -84 40z"/>
<path d="M7786 6104 c-7 -19 78 -181 124 -236 24 -28 31 -31 47 -22 10 6 19
18 21 26 2 8 -28 66 -66 129 -56 92 -73 115 -94 117 -17 2 -28 -3 -32 -14z"/>
<path d="M8097 6088 c-18 -27 -64 -172 -73 -227 -5 -34 -3 -41 17 -51 20 -11
25 -10 41 10 10 12 18 31 18 42 0 11 14 61 30 111 17 50 30 100 28 111 -4 30
-43 33 -61 4z"/>
<path d="M9296 5848 c-2 -7 -9 -44 -15 -83 -6 -38 -21 -94 -32 -122 -12 -29
-19 -60 -15 -68 9 -24 35 -29 55 -11 36 33 81 214 67 270 -5 19 -13 26 -32 26
-13 0 -26 -6 -28 -12z"/>
<path d="M8062 5698 c-7 -7 -12 -17 -12 -24 0 -15 75 -111 139 -176 50 -53 77
-61 87 -24 4 19 -11 43 -83 130 -86 104 -107 118 -131 94z"/>
<path d="M7990 5604 c-6 -14 -10 -81 -10 -148 0 -101 3 -126 16 -137 11 -9 20
-10 32 -2 14 8 18 35 24 149 4 90 3 143 -4 152 -18 21 -48 14 -58 -14z"/>
<path d="M9052 5390 c-29 -21 -82 -52 -118 -69 -47 -22 -64 -35 -64 -50 0 -48
55 -42 157 15 86 48 124 83 121 113 -5 39 -35 36 -96 -9z"/>
<path d="M8404 5346 c-12 -31 4 -50 69 -83 87 -45 190 -64 213 -41 30 30 10
53 -59 66 -34 6 -90 25 -123 42 -68 33 -92 37 -100 16z"/>
<path d="M8010 5125 c-11 -13 -8 -34 14 -128 33 -138 44 -162 76 -162 36 0 35
20 -3 170 -28 111 -36 130 -53 133 -11 2 -27 -4 -34 -13z"/>
<path d="M8167 4663 c-19 -19 4 -75 84 -208 27 -45 43 -61 62 -63 49 -6 42 27
-30 157 -53 95 -72 121 -88 121 -12 0 -25 -3 -28 -7z"/>
<path d="M8432 4248 c-22 -22 -12 -43 74 -145 65 -78 91 -103 110 -103 17 0
25 7 30 24 5 21 -9 42 -86 130 -51 58 -98 106 -104 106 -7 0 -17 -5 -24 -12z"/>
</g>
</svg>
